<svg width="40" height="40" viewBox="0 0 40 40" fill="none" xmlns="http://www.w3.org/2000/svg">
<path d="M32.5839 4.44963C32.5607 4.42646 32.5144 4.40328 32.4912 4.35693C32.5144 4.40328 32.5607 4.42646 32.5839 4.44963Z" fill="#FFFAF7"/>
<path d="M32.1439 4.10198C32.2598 4.19468 32.3757 4.28738 32.4916 4.3569C32.3757 4.28738 32.2598 4.19468 32.1439 4.10198C32.1208 4.0788 32.0744 4.05563 32.0512 4.03245L32.0049 4.00928L32.0512 4.03245C32.0744 4.05563 32.1208 4.0788 32.1439 4.10198Z" fill="#FFFAF7"/>
<path d="M31.9582 3.96285L31.8887 3.9165L31.9582 3.96285Z" fill="#FFFAF7"/>
<path d="M31.7036 3.77757C31.7267 3.80074 31.7267 3.80074 31.7499 3.82392C31.7499 3.80074 31.7267 3.80074 31.7036 3.77757L31.6572 3.75439L31.7036 3.77757Z" fill="#FFFAF7"/>
<path d="M31.6806 3.75434C31.6342 3.73116 31.6111 3.70799 31.5879 3.68481C31.6111 3.70799 31.6342 3.73116 31.6806 3.75434Z" fill="#FFFAF7"/>
<path d="M31.2633 3.47626C31.217 3.45309 31.1938 3.42991 31.1475 3.40674C31.1938 3.42991 31.2402 3.45309 31.2633 3.47626Z" fill="#FFFAF7"/>
<path d="M23.291 0.278021C23.2215 0.254846 23.1288 0.254846 23.0592 0.231671C23.0129 0.231671 22.9897 0.231671 22.9434 0.208496C22.9897 0.208496 23.0129 0.208496 23.0592 0.231671C23.1288 0.231671 23.2215 0.254846 23.291 0.278021Z" fill="#FFFAF7"/>
<path d="M28.4593 1.87724C28.2507 1.78454 28.0653 1.69184 27.8799 1.62231C28.0885 1.69184 28.2739 1.78454 28.4593 1.87724Z" fill="#FFFAF7"/>
<path d="M30.7764 3.15186C30.8227 3.17503 30.8691 3.19821 30.8922 3.22138C30.8691 3.19821 30.8227 3.17503 30.7764 3.15186Z" fill="#FFFAF7"/>
<path d="M26.0721 0.926929C26.0257 0.903754 25.9793 0.903754 25.933 0.880579C25.8866 0.857404 25.8403 0.857404 25.7939 0.834229C25.8403 0.857404 25.8866 0.857404 25.933 0.880579C25.9562 0.903754 26.0025 0.926929 26.0721 0.926929Z" fill="#FFFAF7"/>
<path d="M25.3075 0.718488C25.2844 0.695312 25.2612 0.695312 25.238 0.695312H25.2148H25.238C25.2612 0.695312 25.2844 0.695312 25.3075 0.718488Z" fill="#FFFAF7"/>
<path d="M27.7402 1.55273C27.8098 1.57591 27.8561 1.59908 27.8793 1.62226C27.8329 1.59908 27.8098 1.57591 27.7402 1.55273Z" fill="#FFFAF7"/>
<path d="M30.2661 2.82737L30.3588 2.8969C30.4283 2.94325 30.4978 2.96642 30.5442 3.01277C30.4747 2.96642 30.4283 2.94325 30.3588 2.8969L30.2661 2.82737C30.2429 2.82737 30.2429 2.8042 30.2197 2.8042C30.2429 2.82737 30.2429 2.82737 30.2661 2.82737Z" fill="#FFFAF7"/>
<path d="M32.7465 4.58853C32.7001 4.54218 32.6538 4.51901 32.6074 4.47266C32.6538 4.51901 32.7001 4.54218 32.7465 4.58853Z" fill="#FFFAF7"/>
<path d="M29.9885 2.665C30.0348 2.68818 30.0812 2.71135 30.1275 2.73453C30.0812 2.71135 30.0348 2.68818 29.9885 2.665L29.9653 2.64183C29.9421 2.64183 29.9421 2.61865 29.9189 2.61865C29.9421 2.61865 29.9421 2.64183 29.9653 2.64183L29.9885 2.665Z" fill="#FFFAF7"/>
<path d="M28.5049 1.90044L28.6671 1.99314C28.7366 2.01631 28.8062 2.06266 28.8525 2.08584C28.783 2.06266 28.7135 2.01631 28.6671 1.99314L28.5049 1.90044C28.5049 1.90044 28.5049 1.87726 28.5049 1.90044C28.5049 1.87726 28.5049 1.90044 28.5049 1.90044Z" fill="#FFFAF7"/>
<path d="M27.0221 1.27464C27.1612 1.32099 27.3234 1.39051 27.5088 1.46004C27.532 1.46004 27.532 1.46004 27.5551 1.48321C27.532 1.48321 27.532 1.48321 27.5088 1.46004C27.3234 1.39051 27.1612 1.32099 27.0221 1.27464L26.9294 1.25146H26.9062H26.9294L27.0221 1.27464Z" fill="#FFFAF7"/>
<path d="M0.208984 17.1032C0.208984 17.08 0.208984 17.0337 0.232159 17.0105V16.9873V17.0105C0.208984 17.0337 0.208984 17.0568 0.208984 17.1032Z" fill="#FFFAF7"/>
<path d="M0.116211 17.7751C0.116211 17.7519 0.116211 17.7287 0.116211 17.7056C0.139386 17.7287 0.116211 17.7519 0.116211 17.7751Z" fill="#FFFAF7"/>
<path d="M0.0466125 18.54V18.5168C0.0466125 18.5168 0.0466125 18.5168 0.0466125 18.54C0.0466125 18.6095 0.0234375 18.7022 0.0234375 18.7718C0.0466125 18.6791 0.0466125 18.6095 0.0466125 18.54Z" fill="#FFFAF7"/>
<path d="M10.4521 26.7207C10.4521 26.7439 10.4753 26.7671 10.4753 26.7671C10.4521 26.7671 10.4521 26.7439 10.4521 26.7207Z" fill="#FFFAF7"/>
<path d="M20.7412 0.0231934C21.1815 0.0463683 21.645 0.0695433 22.0854 0.115893C21.645 0.0695433 21.2047 0.0231934 20.7412 0.0231934Z" fill="#FFFAF7"/>
<path d="M24.1943 0.440186C24.3334 0.463361 24.4493 0.486536 24.5651 0.532886C24.4493 0.486536 24.3102 0.463361 24.1943 0.440186Z" fill="#FFFAF7"/>
<path d="M28.8994 2.08569C29.2007 2.22474 29.4788 2.38697 29.7569 2.54919C29.4788 2.38697 29.2007 2.22474 28.8994 2.08569Z" fill="#FFFAF7"/>
<path d="M33.0243 4.82043C32.9779 4.79725 32.9547 4.7509 32.9084 4.72773L32.8389 4.6582L32.9084 4.72773C32.9547 4.7509 33.0011 4.79725 33.0243 4.82043Z" fill="#FFFAF7"/>
<path d="M13.4648 8.71369C15.1798 6.88286 17.2655 5.44602 19.6294 4.54219C20.3478 4.26409 21.0662 4.03234 21.8078 3.87012C21.0662 4.05552 20.3478 4.26409 19.6294 4.54219C17.2424 5.46919 15.1566 6.88286 13.4648 8.71369Z" fill="#FFFAF7"/>
<path d="M17.0106 34.183C15.0408 33.0011 13.3258 31.402 11.9817 29.4785C11.495 28.7832 11.0778 28.0648 10.707 27.3C11.0778 28.0416 11.495 28.7832 11.9817 29.4785C13.3258 31.3788 15.0408 32.9779 17.0106 34.183Z" fill="#FFFAF7"/>
<path d="M4.28737 30.2666C1.5759 27.5783 0.0695249 24.0093 0 20.2086V20.1623V20.0927C0 20.0696 0 20.0464 0 20.0464C0 20.0696 0 20.0927 0 20.0927C0 20.1159 0 20.1391 0 20.1623V20.2086C0.0695249 24.0093 1.5759 27.5783 4.28737 30.2666C6.99884 32.9317 10.591 34.4149 14.4148 34.4149C15.0174 34.4149 15.6199 34.3685 16.2225 34.299C15.6199 34.3685 15.0174 34.4149 14.4148 34.4149C10.591 34.4149 6.99884 32.9317 4.28737 30.2666Z" fill="#FFFAF7"/>
<path d="M33.465 5.2143C33.5114 5.26065 33.5346 5.28383 33.5809 5.307C33.5577 5.28383 33.5114 5.26065 33.465 5.2143L33.4187 5.16795L33.3955 5.14478L33.4187 5.16795L33.465 5.2143Z" fill="#FFFAF7"/>
<path d="M34.0206 5.72424C33.9974 5.70106 33.9743 5.67789 33.9511 5.65471C33.9279 5.63154 33.8816 5.58519 33.8584 5.56201C33.8816 5.58519 33.9279 5.63154 33.9511 5.65471C33.9511 5.67789 33.9974 5.70106 34.0206 5.72424Z" fill="#FFFAF7"/>
<path d="M33.7197 5.44597C33.6965 5.4228 33.6501 5.39962 33.627 5.35327C33.6501 5.37645 33.6733 5.4228 33.7197 5.44597Z" fill="#FFFAF7"/>
<path d="M0.23175 16.9409V16.9872C0.23175 17.0104 0.23175 17.0568 0.208575 17.0799V17.1031C0.208575 17.1263 0.208575 17.1495 0.208575 17.1726V17.219V17.2422V17.2653V17.2885C0.208575 17.358 0.1854 17.4276 0.1854 17.4971C0.1854 17.5666 0.162225 17.613 0.162225 17.6825C0.162225 17.7057 0.162225 17.7288 0.162225 17.752C0.162225 17.8215 0.13905 17.8911 0.13905 17.9606C0.13905 18.0069 0.13905 18.0765 0.115875 18.1228V18.1692C0.115875 18.1923 0.115875 18.2155 0.115875 18.2387C0.115875 18.2619 0.115875 18.285 0.115875 18.3082C0.115875 18.3314 0.115875 18.3314 0.115875 18.3546C0.115875 18.3777 0.115875 18.3777 0.115875 18.4009C0.115875 18.4241 0.115875 18.4473 0.115875 18.4704V18.4936C0.115875 18.5631 0.0926999 18.6558 0.0926999 18.7254C0.0926999 18.7717 0.0926999 18.7949 0.0926999 18.8412C0.0926999 18.8876 0.0926999 18.9108 0.0926999 18.9571C0.0926999 18.9571 0.0926999 18.9571 0.0926999 18.9803V19.0035V19.0266V19.0498C0.0926999 19.0962 0.0926999 19.1425 0.0926999 19.1889C0.0926999 19.212 0.0926999 19.2352 0.0926999 19.2352C0.0926999 19.3279 0.0926999 19.3974 0.0926999 19.467C0.0926999 19.4901 0.0926999 19.4901 0.0926999 19.5133V19.5365C0.0926999 19.606 0.0926999 19.6755 0.0926999 19.7219V19.7682V19.7914V19.8609C0 19.9305 0 19.9305 0 19.9536C0 19.9768 0 19.9768 0 20C0 20.0232 0 20.0232 0 20.0463C0 20.0695 0 20.0927 0 20.0927V20.1622V20.2086C0.0463499 24.0093 1.5759 27.5782 4.28737 30.2433C6.99884 32.9084 10.591 34.3916 14.4148 34.3916C15.0174 34.3916 15.6199 34.3453 16.2225 34.2758C16.5006 34.2526 16.7555 34.2062 17.0336 34.1599C15.0637 32.978 13.3488 31.3789 12.0046 29.4554C11.518 28.7601 11.1008 28.0417 10.73 27.2769C10.6373 27.1147 10.5678 26.9293 10.4983 26.7671C10.4983 26.7439 10.4751 26.7207 10.4751 26.7207C9.54809 24.6118 9.06141 22.3407 9.06141 20C9.06141 16.5933 10.0811 13.3256 12.0278 10.5214C12.4681 9.87252 12.9548 9.26997 13.4878 8.71377C15.2028 6.88295 17.2885 5.4461 19.6524 4.54228C20.3708 4.26418 21.0892 4.03243 21.8308 3.8702C23.0591 3.56893 24.3337 3.42988 25.6315 3.42988C28.6443 3.42988 31.5411 4.241 34.0672 5.7242C34.044 5.70103 34.0209 5.67785 33.9977 5.65467C33.9745 5.6315 33.9282 5.58515 33.905 5.56198L33.8818 5.5388C33.8586 5.51562 33.8123 5.49245 33.7891 5.4461C33.7659 5.42292 33.7196 5.39975 33.6964 5.3534C33.6964 5.3534 33.6964 5.3534 33.6732 5.33022C33.6269 5.30705 33.6037 5.2607 33.5574 5.23753L33.511 5.19117L33.4878 5.168C33.4415 5.12165 33.3951 5.0753 33.3256 5.02895C33.2561 4.9826 33.2097 4.93625 33.1634 4.8899C33.1402 4.86673 33.117 4.86673 33.117 4.84355C33.0707 4.82038 33.0475 4.77403 33.0012 4.75085L32.9316 4.68133L32.8853 4.63498L32.8621 4.6118L32.8389 4.58863C32.7926 4.54228 32.7462 4.5191 32.6999 4.47275C32.6767 4.44958 32.6304 4.4264 32.6072 4.38005C32.4913 4.28735 32.3754 4.19465 32.2827 4.12513C32.2596 4.10195 32.2132 4.07878 32.19 4.0556L32.1437 4.03243L32.1205 4.00925C32.1205 4.00925 32.1205 4.00925 32.0973 4.00925L32.0278 3.9629L32.0046 3.93973L31.9119 3.8702L31.8888 3.84703C31.8656 3.82385 31.8656 3.82385 31.8424 3.80068L31.8192 3.7775C31.7961 3.75433 31.7497 3.73115 31.7265 3.70798L31.7034 3.6848C31.6107 3.61528 31.5411 3.56893 31.4484 3.4994C31.4021 3.47623 31.3789 3.45305 31.3326 3.42988L31.3094 3.4067C31.263 3.36035 31.1935 3.33718 31.1472 3.29083C31.124 3.29083 31.124 3.26765 31.1008 3.26765C31.0545 3.24448 31.0081 3.2213 30.9849 3.19813C30.9154 3.15178 30.8691 3.1286 30.7995 3.08225C30.73 3.0359 30.6837 3.01273 30.6141 2.96638L30.5214 2.89685C30.4983 2.89685 30.4983 2.87368 30.4751 2.87368C30.4519 2.87368 30.4287 2.8505 30.4056 2.8505C30.3824 2.8505 30.3824 2.82733 30.3592 2.82733C30.3129 2.80415 30.2665 2.78098 30.2202 2.7578L30.197 2.73463C30.1738 2.73463 30.1738 2.71145 30.1506 2.71145C30.1043 2.68828 30.0579 2.6651 30.0348 2.64193C30.0348 2.64193 30.0348 2.64193 30.0116 2.64193C29.7335 2.4797 29.4322 2.34065 29.1541 2.17843H29.1309C29.0614 2.15525 28.9919 2.1089 28.9455 2.08573L28.5052 1.90033C28.5052 1.90033 28.5052 1.90033 28.482 1.90033C28.2735 1.80763 28.0881 1.71493 27.9027 1.6454C27.8563 1.62223 27.81 1.59905 27.7636 1.59905H27.7404H27.7173L27.6477 1.57588C27.6246 1.57588 27.6014 1.5527 27.555 1.5527C27.5319 1.5527 27.5319 1.5527 27.5087 1.52953C27.3233 1.46 27.1611 1.39048 27.022 1.34413L26.9293 1.32095H26.9061L26.8134 1.29778C26.5585 1.20508 26.3268 1.11238 26.0487 1.04286C26.0487 1.04286 26.0487 1.04286 26.0255 1.04286C25.9791 1.01968 25.9328 1.01968 25.8864 0.996505C25.8401 0.97333 25.7937 0.97333 25.7474 0.950155C25.7242 0.950155 25.6779 0.92698 25.6547 0.92698C25.5388 0.903805 25.4461 0.857455 25.3302 0.834281C25.3071 0.834281 25.3071 0.834281 25.2839 0.834281C25.2839 0.695231 25.2607 0.695231 25.2375 0.695231H25.2144H25.1912C24.9826 0.648881 24.774 0.579356 24.5423 0.533006C24.4264 0.509831 24.2874 0.486656 24.1715 0.440306C23.9629 0.393956 23.7312 0.347606 23.5226 0.301256C23.4531 0.278081 23.3604 0.278081 23.2908 0.254906C23.2213 0.231731 23.1286 0.231731 23.0591 0.208556C23.0127 0.208556 22.9896 0.208556 22.9432 0.185381C22.8969 0.185381 22.8505 0.162206 22.8042 0.162206C22.5724 0.139031 22.3407 0.0926815 22.1089 0.0695065C21.6686 0.0231566 21.2051 -1.8388e-05 20.7648 -0.0231934C20.5098 -1.8388e-05 20.2549 -1.8388e-05 20 -1.8388e-05C19.5829 -1.8388e-05 19.1425 0.0231566 18.7254 0.0463316C18.679 0.0463316 18.6327 0.0463316 18.5863 0.0463316C18.1228 0.0695065 17.6593 0.115856 17.1958 0.185381C17.1031 0.208556 17.0336 0.208556 16.9409 0.231731L0.23175 16.9409Z" fill="#005FA3"/>
<path d="M39.7686 23.036V23.0128C39.7686 22.9896 39.7686 22.9664 39.7918 22.9201V22.8969C39.7918 22.8506 39.8149 22.8274 39.8149 22.7811V22.7579V22.7347C39.8149 22.7115 39.8149 22.7115 39.8149 22.7115L39.8381 22.5957L39.8613 22.503C39.8613 22.4102 39.8845 22.3407 39.8845 22.2712C39.8845 22.2017 39.9076 22.1322 39.9076 22.0626C39.9076 21.9931 39.9308 21.9468 39.9308 21.9004V21.8541C39.9308 21.8077 39.9308 21.7845 39.9308 21.7382V21.715V21.6918C39.9308 21.6455 39.9308 21.5991 39.954 21.5296V21.5064C39.954 21.4369 39.9772 21.3674 39.9772 21.2747C39.9772 21.2052 39.9772 21.1125 40.0003 21.0429V21.0198V20.9966V20.9734C40.0003 20.9039 40.0003 20.8344 40.0003 20.788C40.0003 20.6953 40.0003 20.6258 40.0003 20.5331V20.4867C40.0003 20.4172 40.0003 20.3709 40.0003 20.3013V20.1623C40.0003 20.1159 40.0003 20.0696 40.0003 20.0001C40.0003 19.9537 40.0003 19.8842 40.0003 19.8378V19.7915C39.954 15.9908 38.4244 12.4218 35.713 9.75672C33.0015 7.0916 29.4094 5.6084 25.5855 5.6084C24.7049 5.6084 23.8242 5.67792 22.9899 5.84015C24.9598 7.02207 26.6747 8.62114 28.0189 10.5447C29.9656 13.3257 30.9853 16.5933 30.9853 20.0232C30.9853 23.43 29.9656 26.6976 28.0189 29.5018C26.1185 32.2133 23.4766 34.299 20.3943 35.4809C18.494 36.2225 16.4778 36.5933 14.4152 36.5933C11.4024 36.5933 8.50556 35.7822 5.97949 34.299H6.00267C6.02584 34.3222 6.02584 34.3222 6.04902 34.3454L6.09537 34.3917C6.11854 34.4149 6.16489 34.4612 6.18807 34.4844C6.23442 34.5308 6.30394 34.6003 6.37347 34.6466C6.41982 34.693 6.46617 34.7162 6.48934 34.7625C6.55887 34.832 6.62839 34.9016 6.72109 34.9711C6.76744 35.0174 6.81379 35.0638 6.86014 35.1101L6.88332 35.1333L7.02237 35.2492L7.04554 35.2724C7.09189 35.2955 7.11507 35.3419 7.16142 35.3651L7.18459 35.3882L7.20777 35.4114C7.23094 35.4346 7.27729 35.4809 7.32364 35.5041H7.34682H7.36999C7.39317 35.5273 7.43952 35.5505 7.46269 35.5736C7.57857 35.6663 7.67126 35.7359 7.78714 35.8286C7.81031 35.8517 7.83349 35.8749 7.85667 35.8749C7.87984 35.8981 7.90301 35.9213 7.94936 35.9444C7.97254 35.9676 7.97254 35.9676 7.99571 35.9676L8.01889 35.9908C8.06524 36.014 8.11159 36.0603 8.15794 36.0835L8.20429 36.1067C8.22746 36.1298 8.25064 36.1298 8.27381 36.153C8.29699 36.1762 8.34334 36.1994 8.36651 36.2225L8.41286 36.2457C8.50556 36.3152 8.57509 36.3616 8.66779 36.4311C8.71414 36.4543 8.73731 36.4775 8.78366 36.5006L8.80684 36.5238L8.89954 36.5933L8.99224 36.6629C9.03859 36.686 9.08494 36.7324 9.15446 36.7556C9.20081 36.7787 9.27034 36.8251 9.31669 36.8483H9.50209L9.73384 37.0568C9.75701 37.08 9.80336 37.1032 9.84971 37.1264C9.91924 37.1727 9.98876 37.2191 10.0583 37.2422C10.1046 37.2654 10.1742 37.3118 10.2205 37.3349C10.5218 37.4972 10.8231 37.6594 11.1243 37.7984C11.1939 37.8216 11.2634 37.868 11.3329 37.8911C11.3329 37.8911 11.3561 37.8911 11.3561 37.9143C11.4256 37.9375 11.472 37.9838 11.5415 38.007C11.7269 38.0997 11.9123 38.1924 12.1209 38.2619C12.1672 38.2851 12.2136 38.3083 12.2599 38.3315C12.2831 38.3315 12.2831 38.3546 12.3063 38.3546C12.3758 38.3778 12.4221 38.401 12.4917 38.4242C12.6539 38.4937 12.8161 38.54 12.9783 38.6096C13.0247 38.6327 13.0942 38.6559 13.1406 38.6791C13.3955 38.7718 13.6504 38.8645 13.8822 38.934C13.9285 38.9572 13.9749 38.9572 14.0212 38.9804C14.0907 39.0035 14.1603 39.0267 14.253 39.0499L14.3225 39.0731C14.4152 39.0962 14.5079 39.1194 14.5774 39.1426C14.6238 39.1658 14.6701 39.1658 14.7165 39.1889C15.2727 39.328 15.8289 39.467 16.3851 39.5597C16.4546 39.5829 16.5241 39.5829 16.6168 39.6061C16.7095 39.6293 16.779 39.6293 16.8486 39.6524C16.9181 39.6756 17.0108 39.6756 17.0803 39.6756C18.0073 39.8147 18.9343 39.861 19.8845 39.861C20.8115 39.861 21.7616 39.7915 22.6886 39.6756H22.7118C22.7813 39.6756 22.8509 39.6524 22.9436 39.6524L39.6527 22.9433C39.7686 23.036 39.7686 23.036 39.7686 23.036Z" fill="#222222"/>
</svg>
