<svg width="23" height="17" viewBox="0 0 23 17" fill="none" xmlns="http://www.w3.org/2000/svg">
<path d="M19.6115 0H2.73165C1.22485 0 0 1.22485 0 2.73165V14.2684C0 15.7752 1.22485 17 2.73165 17H19.6069C21.1137 17 22.3385 15.7752 22.3385 14.2684V2.73627C22.3431 1.22947 21.1183 0 19.6115 0ZM21.0952 14.2684C21.0952 15.0865 20.4296 15.752 19.6115 15.752H2.73165C1.91354 15.752 1.24796 15.0865 1.24796 14.2684V2.73627C1.24796 1.91816 1.91354 1.25258 2.73165 1.25258H19.6069C20.425 1.25258 21.0905 1.91816 21.0905 2.73627V14.2684H21.0952Z" fill="#005FA3"/>
<path d="M14.0883 8.35667L19.5516 3.45727C19.8058 3.22617 19.8289 2.83329 19.5978 2.57445C19.3667 2.32024 18.9739 2.29713 18.715 2.52823L11.181 9.29033L9.71122 7.97766C9.70659 7.97304 9.70197 7.96842 9.70197 7.9638C9.66962 7.93144 9.63726 7.90371 9.60028 7.87598L3.61932 2.52361C3.36048 2.29251 2.9676 2.31562 2.7365 2.57445C2.5054 2.83329 2.52851 3.22617 2.78734 3.45727L8.31535 8.39827L2.81045 13.5519C2.56086 13.7876 2.54699 14.1805 2.78272 14.4347C2.90752 14.5641 3.07391 14.6335 3.24031 14.6335C3.39283 14.6335 3.54536 14.578 3.66554 14.4671L9.25363 9.23949L10.7697 10.5938C10.8898 10.7001 11.0378 10.7509 11.1857 10.7509C11.3336 10.7509 11.4861 10.6954 11.6016 10.5891L13.1593 9.19327L18.715 14.4717C18.8352 14.5872 18.9923 14.6427 19.1449 14.6427C19.3113 14.6427 19.473 14.578 19.5978 14.4486C19.8336 14.199 19.8243 13.8015 19.5747 13.5658L14.0883 8.35667Z" fill="#005FA3"/>
</svg>
